<?xml version="1.0" encoding="UTF-8"?><svg id="a" xmlns="http://www.w3.org/2000/svg" viewBox="0 0 270.26 111.3"><defs><style>.b{fill:#fff;stroke:#010101;stroke-miterlimit:10;}.c{fill:#9b2021;}</style></defs><path class="c" d="M50.33,84.16c0,1.14-.86,1.71-2.58,1.71h-6.95v-8.75h7.5c1.31,0,1.97.57,1.97,1.7v1.07c0,.86-.5,1.35-1.51,1.48,1.05.14,1.58.7,1.58,1.68v1.12ZM48.38,80v-.83c0-.42-.31-.63-.93-.63h-4.65v2.09h4.65c.62,0,.93-.21.93-.63ZM48.43,83.51v-.66c0-.33-.08-.54-.23-.64-.15-.1-.4-.14-.75-.14h-4.65v2.22h4.65c.35,0,.6-.05.75-.14.15-.1.23-.31.23-.64Z"/><path class="c" d="M66.05,83.8c0,.81-.16,1.36-.47,1.64-.31.28-.88.42-1.7.42h-5.53c-.83,0-1.39-.14-1.7-.42-.31-.28-.47-.83-.47-1.64v-6.68h2.04v7.11h5.8v-7.11h2.03v6.68Z"/><path class="c" d="M74.48,85.87h-2.04v-8.75h2.04v8.75Z"/><path class="c" d="M89.47,85.87h-8.6v-8.75h2.04v7.11h6.56v1.65Z"/><path class="c" d="M105,81.44c0,1.7-.64,2.95-1.93,3.75-.73.45-1.93.68-3.6.68h-5.1v-8.75h5.63c1.51,0,2.7.34,3.56,1.02.96.75,1.44,1.85,1.44,3.31ZM102.9,81.41c0-1.82-.96-2.73-2.88-2.73h-3.61v5.55h2.63c1.24,0,2.15-.16,2.71-.47.77-.43,1.15-1.21,1.15-2.34Z"/><path class="c" d="M119.69,85.87h-9.04v-8.75h8.95v1.49h-6.92v1.95h4.04v1.49h-4.04v2.17h7v1.65Z"/><path class="c" d="M135.75,85.87h-2.92l-3.53-3.31h-1.93v3.31h-2v-8.75h7.5c1.31,0,1.97.57,1.97,1.7v2.05c0,.85-.34,1.37-1.02,1.58-.26.08-.96.12-2.1.12l4.04,3.31ZM132.87,80.38v-1.05c0-.29-.08-.49-.25-.58-.12-.08-.34-.12-.66-.12h-4.58v2.44h4.58c.32,0,.54-.04.66-.12.17-.09.25-.28.25-.58Z"/><path class="c" d="M150.38,83.8c0,.81-.16,1.36-.47,1.64-.32.28-.89.42-1.71.42h-5.41c-.89,0-1.48-.16-1.76-.47-.28-.32-.42-.93-.42-1.83l1.8-.37v1.03h6.19v-2h-5.46c-.83,0-1.39-.14-1.7-.42s-.47-.83-.47-1.65v-.97c0-.81.16-1.36.47-1.65.31-.28.88-.42,1.7-.42h4.97c.84,0,1.41.14,1.71.43.31.29.46.85.46,1.67l-1.8.42v-1h-5.73v1.88h5.46c.82,0,1.4.14,1.71.42.32.28.47.83.47,1.65v1.2Z"/><path class="c" d="M175.19,83.8c0,.81-.15,1.36-.47,1.64-.31.28-.88.42-1.7.42h-6.04c-.82,0-1.39-.14-1.7-.42-.31-.28-.47-.83-.47-1.64v-4.61c0-.81.15-1.36.47-1.65.31-.28.88-.42,1.7-.42h6.04c.87,0,1.45.15,1.74.45.29.3.43.88.43,1.74l-1.98.36v-.98h-6.36v5.55h6.36v-1.95h-3.32v-1.49h5.31v3.02Z"/><path class="c" d="M191.8,85.87h-2.92l-3.53-3.31h-1.93v3.31h-2v-8.75h7.49c1.31,0,1.97.57,1.97,1.7v2.05c0,.85-.34,1.37-1.02,1.58-.26.08-.96.12-2.1.12l4.04,3.31ZM188.91,80.38v-1.05c0-.29-.08-.49-.25-.58-.12-.08-.35-.12-.66-.12h-4.58v2.44h4.58c.32,0,.54-.04.66-.12.17-.09.25-.28.25-.58Z"/><path class="c" d="M207.53,83.8c0,.81-.16,1.36-.47,1.64-.31.28-.88.42-1.7.42h-6.44c-.82,0-1.39-.14-1.7-.42-.31-.28-.47-.83-.47-1.64v-4.61c0-.81.15-1.36.47-1.65.31-.28.88-.42,1.7-.42h6.44c.82,0,1.39.14,1.7.42.31.28.47.83.47,1.65v4.61ZM205.5,84.23v-5.55h-6.72v5.55h6.72Z"/><path class="c" d="M223.61,83.8c0,.81-.16,1.36-.47,1.64-.31.28-.88.42-1.7.42h-5.53c-.82,0-1.39-.14-1.7-.42-.31-.28-.47-.83-.47-1.64v-6.68h2.03v7.11h5.8v-7.11h2.03v6.68Z"/><path class="c" d="M239.47,80.77c0,1.13-.66,1.7-1.97,1.7h-5.49v3.41h-2v-8.75h7.49c1.31,0,1.97.57,1.97,1.7v1.95ZM237.5,80.26v-.93c0-.29-.08-.49-.25-.58-.12-.08-.35-.12-.66-.12h-4.58v2.32h4.58c.32,0,.54-.04.66-.12.17-.09.25-.28.25-.58Z"/><polygon class="b" points="54.45 36.98 54.38 36.98 47.41 57.46 47.32 57.46 40.36 36.98 26.6 36.98 40.8 68.91 50.23 68.91 53.94 68.91 88.14 68.91 88.14 61.13 66.96 61.13 66.96 56.84 86.63 56.84 86.63 49.06 66.96 49.06 66.96 44.76 88.14 44.76 88.14 36.98 68.14 36.98 54.45 36.98"/><rect class="b" x="129.8" y="36.98" width="12.52" height="31.93"/><polygon class="b" points="170.92 31.74 170.92 28.14 170.92 27.13 156.63 27.13 156.63 19.13 144.08 19.13 144.08 27.13 129.8 27.13 129.8 35.18 144.08 35.18 144.08 68.91 156.6 68.91 156.6 35.18 170.92 35.18 170.92 31.74"/><path class="b" d="M229.26,49.28l-14.96-2.24c-1.24-.18-1.64-.76-1.64-1.66,0-1.39,1.29-2.28,5.02-2.28,1.38,0,2.8.18,3.91.67,1.2.49,1.91,1.25,1.91,2.55h14.56c-.49-6.75-6.26-10.47-20.37-10.47-10.3,0-18.33,2.24-18.33,10.51,0,4.47,2.49,8.05,8.65,8.99l14.29,2.15c1.73.31,2.26,1.21,2.26,2.15,0,1.57-1.07,2.59-4.97,2.59-1.91,0-3.33-.22-4.26-.67-.84-.49-1.29-1.25-1.33-2.28h-15.09c0,9.39,10.61,10.73,20.2,10.73,14.07,0,20.37-3.62,20.37-11.45,0-5.41-3.86-8.36-10.21-9.3Z"/><path class="b" d="M126.87,58.18c-.22-2.82-1.69-4.38-3.59-4.92v-.09c3.68-1.07,4.88-4.25,4.88-7.29,0-3.53-1.95-6.53-4.3-7.74-1.73-.85-3.91-1.16-7.5-1.16h-26.37v31.93h12.52v-23.88h8.7c2.09,0,3.64.54,3.64,3,0,2.01-.98,3-3.46,3h-5.95v8.05h5.95c2.31,0,3.11,1.43,3.24,3.8.22,3.71.18,5.1.67,6.04h13.67c-.84-1.03-1.42-2.33-1.55-3.76l-.53-6.98Z"/><polygon class="b" points="171.4 36.98 157.91 68.91 171.22 68.91 171.93 66.98 175.82 55.97 175.82 55.97 179.04 46.64 179.12 46.64 180.64 51.04 178.16 59.07 183.45 59.07 186.94 68.91 200.25 68.91 186.76 36.98 171.4 36.98"/></svg>